<?xml version="1.0" encoding="UTF-8"?>
<svg width="752pt" height="752pt" version="1.1" viewBox="0 0 752 752" xmlns="http://www.w3.org/2000/svg">
 <defs>
  <clipPath id="a">
   <path d="m139.21 213h473.58v326h-473.58z"/>
  </clipPath>
 </defs>
 <g clip-path="url(#a)">
  <path d="m603 327.6c-7.8477-5.3047-15.055-11.496-21.48-18.453-9.543-10.109-18.07-21.043-27.234-31.594v0.003906c-16.938-19.914-35.289-38.582-54.91-55.859-7.2891-6.7109-17.262-9.6914-27.043-8.0859-13.711 2.0234-27.484 3.5391-41.262 4.9297-50.469 4.1016-99.742 17.512-145.33 39.555-11.969 6.0664-23.012 13.809-32.793 22.996-10.551 9.8555-20.914 19.969-30.836 30.457-26.617 27.27-49.504 57.949-68.051 91.242-4.043 7.6445-6.9492 15.797-11.055 23.254-5.2461 9.7305-5.4336 12.637 1.8945 21.355 15.102 17.629 30.141 35.32 45.875 52.383h-0.003907c5.1992 5.6289 10.012 11.605 14.406 17.879 2.0273 3.2539 5.5859 5.2344 9.418 5.2461 10.551 0.69531 21.105 2.0234 31.594 2.7812 32.605 2.2734 65.27 4.3594 93.516 6.3203h71.715c23.57 0.37891 46.695 6.3203 70.391 5.75v-0.003907c1.1953 0.066407 2.3789 0.25781 3.5352 0.57031 4.0508 1.1172 8.3906 0.30078 11.754-2.2109 1.7344-1.1055 3.6016-1.9766 5.5625-2.5938 20.727-8.4688 41.449-16.871 62.176-25.273h-0.003907c4.75-2.4102 9.6484-4.5195 14.66-6.3203 3.4297-0.82422 6.5391-2.6562 8.9219-5.2539 2.3867-2.6016 3.9453-5.8516 4.4727-9.3398 7.2031-27.086 12.375-54.668 15.48-82.523 2.3398-19.586 2.9688-39.363 4.2344-59.016 0.32031-3.6328-0.41406-7.2852-2.1172-10.516-1.7031-3.2266-4.3047-5.8945-7.4883-7.6797zm-335.71-40.125c-0.21484 1.9688-0.59375 3.9102-1.1367 5.8125-2.5273 5.6875-5.3711 11.184-7.707 16.871-1.1953 3.6992-4.3281 6.4453-8.1523 7.1406-4.8672 1.0117-9.6055 2.3398-14.531 3.5391zm-37.531 42.777c6.582-1.1562 13.098-2.6523 19.523-4.4844l0.69531 2.2109-33.93 13.773c3.4727-7.3906 7.1367-10.742 13.711-11.5zm-12.004 18.957h-0.003906c9.8477-2.9023 19.496-6.4453 28.879-10.617 1.0469 5.9297-2.2344 11.77-7.8359 13.965-14.09 6.3203-27.863 13.902-41.766 20.852-2.2734 1.0742-4.6758 1.832-8.9102 3.4766 8.3398-12.891 14.785-24.645 29.633-27.93zm-28.688 35.445c14.281-5.4336 27.93-12.637 41.828-18.957l9.4141-4.5469v12.637c0 3.7266-2.9688 3.9805-5.4336 4.8672-9.668 3.5391-19.398 6.8867-29.004 10.617-9.6055 3.7266-17.375 7.3281-26.031 10.93-2.4023 0.94922-4.8008 1.7695-8.6562 3.1602v-0.003906c2.375-8.875 9.1172-15.93 17.883-18.703zm-21.484 27.801c22.809-8.4688 45.746-16.746 68.559-25.273h-0.003906c5.4531-2.6172 12.004-0.64453 15.102 4.5508-14.297 6.1914-29.094 11.16-44.227 14.848-14.598 4.3594-29.129 8.8477-44.672 13.586h-0.003906c-0.19922-3.4609 1.9531-6.625 5.2461-7.707zm-12.133 21.172c2.9883-2.1328 6.1602-3.9961 9.4805-5.5625 8.8477-3.2852 17.754-6.3203 26.727-9.0352l65.586-20.66c6.3203-1.957 6.3203-1.957 12.637 3.918-5.9414 1.7695-11.438 3.7266-17.059 5.1172-27.809 6.6719-54.621 16.973-79.742 30.645l-3.1602 1.5781c-8.5938 4.1094-9.0352 3.9805-14.469-6zm12.637 15.605c1.5781-1.0117 3.1602-2.0859 4.8672-3.0312 32.984-17.566 68.746-27.359 104.45-37.531 6.3203-1.7695 8.9727 2.2734 12.637 5.875-1.0469 0.76562-2.1445 1.4609-3.2852 2.082-15.543 6.3203-31.023 12.637-46.758 18.449-13.523 4.8672-27.422 8.7812-41.199 12.637-7.0781 2.0859-14.344 3.4102-21.355 5.4961v0.003906c-1.7383 0.82031-3.7461 0.85547-5.5117 0.09375-1.7617-0.76172-3.1172-2.2461-3.7109-4.0742zm18.957 22.809-8.7188-10.109c3.793-1.0742 6.3203-2.0859 9.1602-2.5898 25.742-4.8633 50.816-12.777 74.688-23.566 10.172-4.6133 20.914-7.8984 31.594-11.5 2.4648-0.88281 5.4336-2.7812 8.7812 1.1367-12.738 7.3789-26.125 13.578-39.996 18.512-17.754 5.1172-35.32 11.059-52.762 17.25-7.7656 3.3203-15.355 7.0312-22.746 11.121zm88.02 41.641c-3.0117-0.21094-5.9844-0.80469-8.8477-1.7695 7.9453-5.0312 16.68-8.6875 25.844-10.805-5.1172 12.953-6.0039 13.523-16.996 12.574zm19.84-23.316c-15.039 5.875-29.949 12.133-44.863 18.199-10.996 4.4219-22.051 1.3906-33.047 0-1.0742 0-1.957-2.4648-4.1055-5.3086l88.461-22.305c0.23438 4.2383-2.4102 8.1016-6.4453 9.4141zm5.6875-18.957v0.003906c-1.3047 0.58594-2.6562 1.0508-4.0469 1.3906-16.809 4.3594-33.613 8.9102-50.551 13.648-11.879 3.2852-23.57 7.0781-36.648 11.059l-6.9453-8.7852c2.7812-1.0117 4.5508-1.707 6.3203-2.2734 7.2656-2.4648 14.66-4.5508 21.734-7.3945 24.359-9.793 49.301-18.066 74.684-24.77 1.707-0.50391 3.3477-1.0742 4.9922-1.707l4.6133-1.7695v-0.37891c0.11328-1.2188 0.11328-2.4453 0-3.6641-0.50391-3.0312-2.0859-3.4102-6.3203-2.4023-8.5938 2.2109-17.188 4.4219-25.273 7.3281-21.422 7.457-42.652 15.355-63.945 23-5.8125 2.0859-11.625 4.2344-17.566 6.3203-2.5898 0.82031-5.8125 2.2109-8.0234-2.6523 2.5391-1.6719 5.2031-3.1484 7.9609-4.4219 16.809-6.3203 33.363-13.523 50.551-18.008 18.48-5.0039 36.281-12.238 53.012-21.547l3.918-2.0859c2.9688 3.4766 6.3203 6.8242 8.9102 10.551 0.59766 0.78906 1.0312 1.6914 1.2656 2.6562 0.57031 2.4023-0.94922 4.1719-4.2344 5.0547h-0.31641c-0.77344 8.8867-6.1094 16.734-14.09 20.723zm292.11-56.867c-3.0312 21.23-8.1523 42.207-12.195 63.188-0.78516 4.9688-4.3477 9.0469-9.1641 10.488-16.934 6.7617-33.426 14.848-50.551 21.484h0.003907c-11.645 4.9258-23.754 8.6719-36.145 11.184-10.246 1.3477-20.637 1.1758-30.832-0.50391-22.184-3.1602-44.57-4.6797-66.98-4.5508h-66.281c-3.4766 0-6.9492-0.57031-12.32-1.0117 3.793-9.0977 6.8242-16.746 10.234-24.137 3.918-8.5938 8.4023-16.934 12.637-25.273h0.003906c3.4648-6.0742 4.8516-13.113 3.9531-20.047-0.90234-6.9336-4.043-13.387-8.9453-18.371-12.234-14.473-26.695-26.91-42.84-36.836l-22.113-12.637h-0.003906c-5.6094-2.4062-8.5586-8.6016-6.8867-14.473 2.7461-15.66 7.7031-30.848 14.723-45.113 4.3359-8.957 7.8047-18.309 10.363-27.93 3.0039-10.172 10.641-18.328 20.598-21.988 40.156-17.93 82.969-29.176 126.75-33.297 15.227-1.7695 30.52-3.2227 45.684-5.2461 6.4531-1.3516 13.152 0.58984 17.883 5.1797 16.68 16.492 33.617 33.047 49.855 50.109 10.742 11.309 20.094 23.949 30.707 35.383 6.8398 7.2852 14.258 14.004 22.18 20.094 3.7852 2.332 5.8984 6.6328 5.4336 11.059-1.8945 21.102-2.7812 42.332-5.75 63.312z"/>
 </g>
</svg>
