<?xml version="1.0" encoding="UTF-8"?>
<svg width="752pt" height="752pt" version="1.1" viewBox="0 0 752 752" xmlns="http://www.w3.org/2000/svg">
 <path d="m477.11 374.34c-0.45703-0.46875-1.0078-0.70312-1.6562-0.71094h-23.68c-0.64844 0.007813-1.1992 0.24219-1.6562 0.71094-0.46875 0.45703-0.70703 1.0078-0.71094 1.6562 0.003906 0.64844 0.24219 1.2031 0.71094 1.6602 0.45703 0.46875 1.0078 0.70312 1.6562 0.71094h23.68c0.64844-0.007813 1.1992-0.24219 1.6562-0.71094 0.46875-0.45703 0.70703-1.0117 0.71094-1.6602-0.003906-0.64844-0.24219-1.1992-0.71094-1.6562m43.336 1.6562c-0.007812-0.64844-0.24219-1.1992-0.71094-1.6562-0.45703-0.46875-1.0117-0.70312-1.6602-0.71094h-23.676c-0.64844 0.007813-1.2031 0.24219-1.6602 0.71094-0.46875 0.45703-0.70312 1.0078-0.71094 1.6562 0.007812 0.64844 0.24219 1.2031 0.71094 1.6602 0.45703 0.46875 1.0117 0.70312 1.6602 0.71094h23.676c0.64844-0.007813 1.2031-0.24219 1.6602-0.71094 0.46875-0.45703 0.70312-1.0117 0.71094-1.6602m-312.57 2.3711c0.64844-0.007813 1.2031-0.24219 1.6602-0.71094 0.46484-0.45703 0.70313-1.0117 0.71094-1.6602-0.007812-0.64844-0.24609-1.1992-0.71094-1.6562-0.45703-0.46875-1.0117-0.70312-1.6602-0.71094h-23.68c-0.64453 0.007813-1.1992 0.24219-1.6562 0.71094-0.46875 0.45703-0.70312 1.0078-0.71094 1.6562 0.007813 0.64844 0.24219 1.2031 0.71094 1.6602 0.45703 0.46875 1.0117 0.70312 1.6562 0.71094h23.68m44.992-2.3711c-0.007813-0.64844-0.24219-1.1992-0.71094-1.6562-0.45703-0.46875-1.0078-0.70312-1.6562-0.71094h-23.68c-0.64844 0.007813-1.2031 0.24219-1.6602 0.71094-0.46484 0.45703-0.70312 1.0078-0.70703 1.6562 0.003907 0.64844 0.24219 1.2031 0.70703 1.6602 0.45703 0.46875 1.0117 0.70312 1.6602 0.71094h23.68c0.64844-0.007813 1.1992-0.24219 1.6562-0.71094 0.46875-0.45703 0.70312-1.0117 0.71094-1.6602m40.254 2.3711c0.64844-0.007813 1.1992-0.24219 1.6562-0.71094 0.46875-0.45703 0.70703-1.0117 0.71094-1.6602-0.003907-0.64844-0.24219-1.1992-0.71094-1.6562-0.45703-0.46875-1.0078-0.70312-1.6562-0.71094h-23.68c-0.64844 0.007813-1.1992 0.24219-1.6562 0.71094-0.46875 0.45703-0.70703 1.0078-0.71094 1.6562 0.003906 0.64844 0.24219 1.2031 0.71094 1.6602 0.45703 0.46875 1.0078 0.70312 1.6562 0.71094h23.68m269.23-4.0273c-0.45703-0.46875-1.0078-0.70312-1.6562-0.71094h-23.68c-0.64844 0.007813-1.2031 0.24219-1.6562 0.71094-0.46875 0.45703-0.70703 1.0078-0.71094 1.6562 0.003906 0.64844 0.24219 1.2031 0.71094 1.6602 0.45312 0.46875 1.0078 0.70312 1.6562 0.71094h23.68c0.64844-0.007813 1.1992-0.24219 1.6562-0.71094 0.46875-0.45703 0.70312-1.0117 0.71094-1.6602-0.007812-0.64844-0.24219-1.1992-0.71094-1.6562m-11.367-64.406c2.8438-1.4219 5.6055-3 8.2891-4.7383 3-2.207 3.9453-4.5742 2.8398-7.1016-0.94531-2.2109-3.2344-3.2383-6.8672-3.0781-2.0508 0.15625-4.2617 0.63281-6.6289 1.4219l-26.281 7.3398c-33.309 9.6289-57.699 16.812-73.172 21.547-26.992 8.207-50.988 16.34-71.984 24.391-5.207 2.0508-9.9453 2.918-14.207 2.6055-4.418-0.31641-8.7617-1.8164-13.023-4.5-9.7852-6.1562-15.152-9.7109-16.102-10.656-5.3672-4.8945-7.8906-10.891-7.5742-17.996 0-0.31641-0.31641-1.0273-0.94922-2.1328-1.4219-2.8398-6.2344-12.547-14.445-29.125-5.6836-11.996-10.734-21.703-15.152-29.125-9.3164-15.469-23.285-23.758-41.914-24.863-9.9453-0.15625-18.469 2.0547-25.57 6.6328-11.527 7.5742-22.656 19.652-33.391 36.227-4.5781 6.9453-6.2344 12.789-4.9727 17.523 1.2656 4.7344 5.6836 9.0781 13.262 13.023 4.5781 2.3672 12.312 6.1562 23.207 11.367 10.102 4.8906 17.836 8.6797 23.203 11.363 4.4219 2.3711 11.051 6.2383 19.891 11.605 7.8945 3.9453 15.234 6.1562 22.023 6.6289 0.78906 0 2.3672 0.63281 4.7344 1.8945 11.207 6.3125 21.547 13.496 31.02 21.547 3.7891 3.4727 3.7109 6.7109-0.23828 9.7109-10.258 7.7344-16.652 12.391-19.18 13.969-1.7344 1.2617-4.5781 3.1562-8.5234 5.6836-3.3164 1.8945-6.3945 2.9219-9.2344 3.0781-3.6328 0.15625-7.418 1.1055-11.367 2.8398-1.8945 0.78906-5.4453 2.5273-10.656 5.2109l-13.496 7.5781c-6.6289 3.6289-15.391 8.0508-26.281 13.258-13.895 6.6328-22.656 10.895-26.285 12.789-7.1055 3.6289-11.207 7.6562-12.312 12.074-1.2656 4.4219 0.15625 10.023 4.2617 16.812 4.7344 8.3672 12.469 17.996 23.203 28.891 11.527 11.68 25.496 16.258 41.914 13.734 15.785-2.5273 27.547-10.105 35.281-22.734 7.418-12.156 14.68-26.203 21.785-42.148 2.6836-4.8945 4.6562-8.6016 5.918-11.129 2.5273-4.4219 3.9492-8.3672 4.2656-11.84 0.47266-4.2617 1.9727-7.9727 4.4961-11.129 1.7383-2.2109 4.6562-4.8945 8.7617-8.0508 2.0508-1.7383 4.6562-3.3945 7.8164-4.9727 3.6289-1.7344 6.3125-3.1562 8.0508-4.2617 4.7344-2.3672 9.7852-2.6055 15.152-0.71094 25.418 9.7891 54.699 19.652 87.852 29.598 16.891 5.2109 46.566 13.812 89.031 25.812 4.8945 1.2617 8.7617 1.1055 11.602-0.47266 2.2109-1.1055 3.4727-2.3711 3.7891-3.7891 0.16016-1.582-0.71094-3.2383-2.6055-4.9727-0.78906-0.63281-2.7617-1.6602-5.918-3.0781l-126.92-61.566c-1.1055-0.31641-2.9219-0.94922-5.4492-1.8945-1.8945-0.94922-2.918-2.2891-3.0781-4.0273 0-1.7344 1.0273-3.1562 3.0781-4.2617 2.5273-0.78906 4.3438-1.418 5.4492-1.8945l123.6-59.906m-198.9 50.672c-1.1055 0.47266-3.1562 2.2891-6.1562 5.4453-2.2109 2.3711-4.5 3.3945-6.8672 3.0781-2.0508-0.3125-4.1836-1.5781-6.3945-3.7852-2.5234-2.5273-4.418-4.3438-5.6836-5.4492-8.8398-6.6289-19.258-13.18-31.254-19.652-1.2656-0.63281-2.1328-1.1055-2.6055-1.4219-0.94922-0.62891-1.5-1.6562-1.6562-3.0781 0.94531-0.31641 5.1289-1.2617 12.547-2.8398 5.2109-0.94922 9.3164-2.4492 12.316-4.5 0.94531-0.63281 2.3672 0.078125 4.2617 2.1328 9.1562 10.734 19.496 18.941 31.02 24.625 4.1016 1.8945 4.2617 3.7109 0.47266 5.4453m-130.23-73.406c-0.94922-2.9961 0.39453-6.707 4.0234-11.129 6.7891-8.3633 10.895-13.258 12.312-14.68 4.7383-5.0508 10.027-7.8125 15.867-8.2891 6-0.3125 11.523 1.7383 16.574 6.1602 10.734 9.3125 16.18 20.203 16.34 32.676-0.16016 7.1016-1.6562 11.762-4.5 13.969-3 2.2109-7.8945 2.2109-14.68 0-9.3164-2.8398-21.551-6.7852-36.703-11.84-5.3672-1.7344-8.4453-4.0234-9.2344-6.8672m99.215 131.42c-0.47266 0.62891-1.2617 1.5-2.3672 2.6016-0.94922 0.79297-1.9727 0.87109-3.0781 0.23828-2.8438-2.0508-7.0273-3.7109-12.551-4.9727-7.8945-1.8945-12.707-3.1562-14.445-3.7891 18.945-8.8398 37.336-21.152 55.172-36.938 1.4219-1.2656 2.6055-1.8164 3.5547-1.6602 0.78906 0.31641 1.5781 1.5 2.3672 3.5547 0.15625 0.78906 0.55078 3 1.1836 6.6289 0.47266 2.6836 1.1836 4.7344 2.1289 6.1562 0.94922 1.5781 0 3.0781-2.8398 4.5-5.2109 2.5234-10.418 5.9961-15.629 10.418-3.6289 3.1562-8.1289 7.5781-13.496 13.262m-71.984 32.676c8.6836-2.8398 16.18-4.9727 22.496-6.3945 5.0508-1.1055 8.8398-0.23438 11.363 2.6055 2.6836 2.8438 3.9492 7.418 3.7891 13.734 0 8.3672-2.6055 16.18-7.8125 23.441-5.2109 7.4219-11.207 11.762-17.996 13.023-7.4219 1.4219-13.734 0-18.945-4.2617-3.6289-2.8398-7.1797-6.4727-10.652-10.891-1.8945-2.5273-4.7383-6.7109-8.5273-12.551-1.5781-2.3672-1.8945-4.5781-0.94531-6.6289 0.78906-2.0547 2.5234-3.5547 5.207-4.5 9.7891-3.3164 17.129-5.8398 22.023-7.5781z"/>
</svg>
